Buried.PL.BRRip.XviD-RLF

INFO:

Complete name : rlf-buired.avi
Format : AVI
Format/Info : Audio Video Interleave
File size : 700 MiB
Duration : 1h 31mn
Overall bit rate : 1 069 Kbps
Language : Polish
Encoder : Ralf

Video:

Format : MPEG-4 Visual
Format profile : Advanced Simple@L5
Format settings, BVOP : 2
Format settings, QPel : No
Format settings, GMC : No warppoints
Format settings, Matrix : H.263
Muxing mode : Packed bitstream
Codec ID/Hint : XviD
Duration : 1h 31mn
Bit rate : 931 Kbps
Width : 680 pixels
Height : 306 pixels
Display aspect ratio : 2.222
Frame rate : 25.000 fps
Color space : YUV
Chroma subsampling : 4:2:0
Bit depth : 8 bits
Scan type : Progressive
Bits/(Pixel*Frame) : 0.179
Stream size : 610 MiB (87%)
Writing library : XviD 1.2.1 

Audio:

Format : MPEG Audio
Codec ID/Hint : MP3
Duration : 1h 31mn
Bit rate : 128 Kbps
Channel(s) : 2 channels
Sampling rate : 48.0 KHz
Stream size : 83.8 MiB (12%)
Alignment : Split accross interleaves
Interleave, duration : 40 ms (1.00 video frame)
Interleave, preload duration : 500 ms

More Info:
 
http://www.imdb.com/title/tt1462758/ 
http://www.filmweb.pl/film/Pogrzebany-2010-531431
                           
SOURCE:

ViSiON 720p / PSiG (THX)


CAST:

Ryan Reynolds ... Paul Conroy 
José Luis García Pérez ... Jabir (voice) 
Robert Paterson ... Dan Brenner (voice) 
Stephen Tobolowsky ... Alan Davenport (voice) 
Samantha Mathis ... Linda Conroy (voice)

PILOT:

Paul (Ryan Reynolds) jest Amerykaninem pracujacym w Iraku. Po ataku przez grupe Irakijczykow budzi sie pogrzebany zywcem w trumnie. Ma przy sobie tylko zapalniczke i komorke. Prowadzi wyscig z czasem, aby uniknac smierci. 

Paul is a U.S. contractor working in Iraq. After an attack by a group of Iraqis he wakes to find he is buried alive inside a coffin. With only a lighter and a cell phone it's a race against time to escape this claustrophobic death trap.

SCREENS:
 
http://www.leetleech.org/images/72866441212507340056.png
 
http://www.leetleech.org/images/87434608017487292207.png
 
http://www.leetleech.org/images/39330821657555240764.png
 
http://www.leetleech.org/images/92985954009477114120.png